<?xml version="1.0" encoding="UTF-8" standalone="no"?>
<!-- Created with Inkscape (http://www.inkscape.org/) -->

<svg
   width="200mm"
   height="200mm"
   viewBox="0 0 200 200"
   version="1.1"
   id="svg1"
   xml:space="preserve"
   inkscape:version="1.3 (0e150ed6c4, 2023-07-21)"
   sodipodi:docname="icon-bg.svg"
   xmlns:inkscape="http://www.inkscape.org/namespaces/inkscape"
   xmlns:sodipodi="http://sodipodi.sourceforge.net/DTD/sodipodi-0.dtd"
   xmlns="http://www.w3.org/2000/svg"
   xmlns:svg="http://www.w3.org/2000/svg"><sodipodi:namedview
     id="namedview1"
     pagecolor="#505050"
     bordercolor="#eeeeee"
     borderopacity="1"
     inkscape:showpageshadow="0"
     inkscape:pageopacity="0"
     inkscape:pagecheckerboard="0"
     inkscape:deskcolor="#505050"
     inkscape:document-units="mm"
     inkscape:zoom="0.70710678"
     inkscape:cx="282.84271"
     inkscape:cy="358.50314"
     inkscape:window-width="1920"
     inkscape:window-height="1017"
     inkscape:window-x="1016"
     inkscape:window-y="-8"
     inkscape:window-maximized="1"
     inkscape:current-layer="layer1" /><defs
     id="defs1" /><g
     inkscape:label="Camada 1"
     inkscape:groupmode="layer"
     id="layer1"><path
       d="m 100,200 a 100,100 0 1 0 0,-200 100,100 0 1 0 0,200 z M 144.14063,81.640622 94.140625,131.64062 c -3.67187,3.67188 -9.609375,3.67188 -13.242179,0 l -24.999996,-25 c -3.671884,-3.67187 -3.671884,-9.609372 0,-13.242185 3.671871,-3.632812 9.609376,-3.671874 13.24218,0 l 18.35938,18.359375 43.35937,-43.398438 c 3.67188,-3.671875 9.60938,-3.671875 13.24218,0 3.63282,3.671876 3.67187,9.609374 0,13.242186 z"
       id="path1"
       style="stroke-width:0.390625;fill:#35bcec;fill-opacity:1" /><path
       id="path1-9"
       style="fill:#ffffff;fill-opacity:1;stroke-width:0.390625"
       d="m 137.49521,65.60463 c -2.39746,0 -4.79984,0.917901 -6.63578,2.753837 L 87.499808,111.75737 69.140718,93.397762 c -3.6328,-3.671876 -9.57022,-3.632806 -13.24208,0 -3.67188,3.63281 -3.67188,9.570218 0,13.242088 l 25.00002,25.00002 c 3.6328,3.67188 9.57022,3.67188 13.24209,0 l 50.000042,-50.000043 -0.0393,-0.03876 c 3.67187,-3.632808 3.63282,-9.57073 0,-13.242602 -1.8164,-1.835936 -4.20886,-2.753837 -6.60631,-2.753837 z"
       sodipodi:nodetypes="scccssccccss" /></g></svg>
