<?xml version="1.0" encoding="UTF-8" standalone="no"?>
<!-- Created with Inkscape (http://www.inkscape.org/) -->

<svg
   width="200mm"
   height="222mm"
   viewBox="0 0 200 222"
   version="1.1"
   id="svg1"
   xml:space="preserve"
   inkscape:version="1.3 (0e150ed6c4, 2023-07-21)"
   sodipodi:docname="icon-name-c.svg"
   xmlns:inkscape="http://www.inkscape.org/namespaces/inkscape"
   xmlns:sodipodi="http://sodipodi.sourceforge.net/DTD/sodipodi-0.dtd"
   xmlns="http://www.w3.org/2000/svg"
   xmlns:svg="http://www.w3.org/2000/svg"><sodipodi:namedview
     id="namedview1"
     pagecolor="#505050"
     bordercolor="#eeeeee"
     borderopacity="1"
     inkscape:showpageshadow="0"
     inkscape:pageopacity="0"
     inkscape:pagecheckerboard="0"
     inkscape:deskcolor="#505050"
     inkscape:document-units="mm"
     inkscape:zoom="0.5"
     inkscape:cx="150"
     inkscape:cy="365"
     inkscape:window-width="1920"
     inkscape:window-height="1017"
     inkscape:window-x="1016"
     inkscape:window-y="-8"
     inkscape:window-maximized="1"
     inkscape:current-layer="g1" /><defs
     id="defs1" /><g
     inkscape:label="Camada 1"
     inkscape:groupmode="layer"
     id="layer1"><g
       id="g1"><path
         id="path1-9"
         style="fill:#ffffff;fill-opacity:1;stroke-width:0.833813"
         d="m 180.05129,7e-6 c -5.11752,0 -10.24555,1.959316 -14.16448,5.878234 L 73.333031,98.515867 34.144424,59.326156 c -7.754435,-7.837846 -20.428222,-7.754448 -28.2660338,0 -7.8378536,7.754455 -7.8378536,20.428221 0,28.266051 L 59.24247,140.95629 c 7.754435,7.83786 20.428224,7.83786 28.266055,0 L 194.2367,34.228121 l -0.0839,-0.08274 c 7.83783,-7.754451 7.75447,-20.42931 0,-28.267147 C 190.27558,1.959316 185.16872,0 180.05122,0 Z"
         sodipodi:nodetypes="scccssccccss" /><path
         style="font-weight:bold;font-size:82.5764px;font-family:Sans;-inkscape-font-specification:'Sans Bold';fill:#ffffff;stroke-width:6.88136"
         d="M 28.488858,221.17455 H 16.019822 V 172.61962 H 1.4305115e-8 V 162.215 H 44.50868 v 10.40462 H 28.488858 Z m 59.28992,-22.62594 q 0,11.23039 -5.945501,17.34105 -5.862924,6.11065 -16.019821,6.11065 -6.275807,0 -11.230391,-2.72502 -4.872008,-2.72502 -7.679605,-7.92734 -2.807598,-5.28489 -2.807598,-12.79934 0,-11.23039 5.862925,-17.25847 5.862924,-6.02807 16.102398,-6.02807 6.358383,0 11.23039,2.72502 4.872008,2.72502 7.679606,7.92733 2.807597,5.20232 2.807597,12.63419 z m -31.131303,0 q 0,6.68869 2.146987,10.1569 2.229562,3.38563 7.184146,3.38563 4.872008,0 7.018994,-3.38563 2.229563,-3.46821 2.229563,-10.1569 0,-6.68869 -2.229563,-9.99174 -2.146986,-3.38564 -7.10157,-3.38564 -4.872008,0 -7.10157,3.38564 -2.146987,3.30305 -2.146987,9.99174 z m 91.164305,-7.43187 q 0,14.94632 -8.50537,22.54335 -8.50537,7.51446 -23.69943,7.51446 H 98.92655 V 162.215 h 18.49711 q 9.24856,0 16.01983,3.30305 6.85384,3.30306 10.56977,9.74402 3.79852,6.44096 3.79852,15.85467 z m -12.9645,0.3303 q 0,-9.74401 -4.29397,-14.36829 -4.29397,-4.62428 -12.46903,-4.62428 h -6.68869 v 38.39803 h 5.36746 q 18.08423,0 18.08423,-19.40546 z m 65.15276,7.10157 q 0,11.23039 -5.9455,17.34105 -5.86292,6.11065 -16.01982,6.11065 -6.27581,0 -11.23039,-2.72502 -4.87201,-2.72502 -7.67961,-7.92734 -2.80759,-5.28489 -2.80759,-12.79934 0,-11.23039 5.86292,-17.25847 5.86293,-6.02807 16.1024,-6.02807 6.35838,0 11.23039,2.72502 4.87201,2.72502 7.6796,7.92733 2.8076,5.20232 2.8076,12.63419 z m -31.1313,0 q 0,6.68869 2.14699,10.1569 2.22956,3.38563 7.18414,3.38563 4.87201,0 7.019,-3.38563 2.22956,-3.46821 2.22956,-10.1569 0,-6.68869 -2.22956,-9.99174 -2.14699,-3.38564 -7.10157,-3.38564 -4.87201,0 -7.10157,3.38564 -2.14699,3.30305 -2.14699,9.99174 z"
         id="text1"
         aria-label="ToDo" /></g></g></svg>
